<svg width="141" height="24" viewBox="0 0 141 24" fill="none" xmlns="http://www.w3.org/2000/svg">
<g clip-path="url(#clip0_1723_4076)">
<path d="M18.762 4.0563L30.7121 6.98155V4.02397L18.762 0.0078125V4.0563Z" fill="#0E9E2F"/>
<path d="M18.762 9.60766L30.7121 10.642V7.67635L18.762 5.36523V9.60766Z" fill="#0E9E2F"/>
<path d="M11.2473 14.3759L30.7374 14.3597V11.394L11.2473 10.4971V14.3759Z" fill="#0E9E2F"/>
<path d="M11.264 19.1919L30.7123 18.1414V15.1758L11.2556 15.4101L11.264 19.1919Z" fill="#0E9E2F"/>
<path d="M11.2807 24.0002L30.7206 21.9881V19.0225L11.2639 20.2103L11.2807 24.0002Z" fill="#0E9E2F"/>
<path d="M18.3604 9.61583C15.1196 9.19723 11.8392 9.14571 8.58603 9.4623C2.51053 9.97139 0 10.8684 0 10.8684V7.71684C2.79655 6.75262 5.69617 6.09397 8.64461 5.7532C11.8643 5.33915 15.1166 5.21202 18.3604 5.37341V9.61583Z" fill="white"/>
<path d="M18.352 4.0404C15.0832 3.92092 11.8103 4.12944 8.58603 4.66263C5.64905 5.08828 2.76963 5.82539 0 6.86061L0 3.90303C2.83018 2.8429 5.71563 1.92583 8.64461 1.15556C11.8256 0.421616 15.0817 0.0340152 18.352 0V4.0404Z" fill="white"/>
<path d="M10.879 20.2019C6.27634 19.3938 0 18.9736 0 18.9736V21.9312L10.879 23.9676V20.2019Z" fill="white"/>
<path d="M10.879 15.4099C7.26836 14.9665 3.61536 14.9475 0 15.3534L0 18.3433C3.6215 18.3777 7.23649 18.6477 10.8204 19.1514H10.879V15.4099Z" fill="white"/>
<path d="M10.879 10.5049C6.19265 10.2786 0 11.7008 0 11.7008V14.6584C3.59603 14.3263 7.21203 14.2426 10.8204 14.4079H10.879V10.5049Z" fill="white"/>
<path d="M37.1978 5.97991V14.586H34.8044V4.61426H39.9678V5.97991H37.1978Z" fill="white"/>
<path d="M44.4533 10.6508C44.1399 10.6506 43.8269 10.6317 43.516 10.5942V14.5862H41.1143V4.75182C42.1557 4.62955 43.2034 4.56212 44.2524 4.5498C47.1646 4.5498 48.1187 5.8993 48.1187 7.41041C48.1187 9.37405 46.9052 10.6508 44.4533 10.6508ZM44.1269 5.8993C43.9186 5.89766 43.7108 5.91935 43.5076 5.96395V9.37405C43.7118 9.41142 43.9191 9.43036 44.1269 9.43061C45.5663 9.43061 45.8006 8.49324 45.8006 7.5397C45.8352 7.31872 45.816 7.09299 45.7446 6.88041C45.6731 6.66783 45.5513 6.47426 45.3889 6.31505C45.2264 6.15585 45.0278 6.03538 44.8088 5.96321C44.5897 5.89104 44.3562 5.86916 44.1269 5.8993Z" fill="white"/>
<path d="M49.4409 14.586V4.61426H54.9222V5.97991H51.8259V8.6789H54.3365V9.98799H51.8259V13.2203H55.0394V14.5779L49.4409 14.586Z" fill="white"/>
<path d="M64.1859 14.586V7.74961L61.416 13.786H60.8134L58.0937 7.73345V14.586H56.3196V4.61426H59.1314L61.6419 9.95567L64.0771 4.61426H66.5877V14.586H64.1859Z" fill="white"/>
<path d="M72.998 14.5862V10.3761H72.8055C72.3452 10.3761 71.8682 10.4569 71.341 11.9033L70.3786 14.5862H67.7844L68.9225 12.2104C69.6422 10.6912 70.0188 10.3437 70.5962 10.0528V9.97203C69.9674 9.90666 69.3887 9.60994 68.9805 9.14347C68.5722 8.677 68.3656 8.07662 68.4037 7.46698C68.4037 5.71344 69.6004 4.5498 72.2615 4.5498C72.8808 4.5498 75.3579 4.61445 75.3579 4.61445V14.5862H72.998ZM72.998 5.98011C72.7657 5.92321 72.5261 5.89871 72.2867 5.90738C72.0678 5.91106 71.8521 5.9581 71.6529 6.04558C71.4536 6.13306 71.2751 6.25912 71.1284 6.41594C70.9817 6.57276 70.8699 6.75701 70.8 6.95727C70.73 7.15752 70.7034 7.36951 70.7218 7.58011C70.701 7.77978 70.7229 7.98143 70.7859 8.17264C70.8489 8.36386 70.9518 8.54061 71.0882 8.692C71.2246 8.84339 71.3916 8.96623 71.579 9.05295C71.7664 9.13968 71.9702 9.18845 72.1779 9.19627H73.0147L72.998 5.98011Z" fill="white"/>
<path d="M81.877 14.586V9.93143C81.2192 10.4594 80.3892 10.7456 79.5338 10.7395C76.8559 10.7395 77.0233 8.54153 77.0233 8.0082V4.61426H79.4167V7.50719C79.4167 8.54153 79.5589 9.24456 80.5046 9.24456C80.7876 9.26427 81.0699 9.19663 81.3105 9.05138C81.5512 8.90614 81.7378 8.69081 81.8435 8.43648V4.61426H84.2369V14.586H81.877Z" fill="white"/>
<path d="M91.8605 14.586V7.49911L88.5131 14.586H86.0779V4.61426H88.4713V11.386L91.8186 4.61426H94.2455V14.586H91.8605Z" fill="white"/>
<path d="M101.308 14.586V10.1496H98.3795V14.586H95.9861V4.61426H98.3795V8.73547H101.308V4.61426H103.693V14.586H101.308Z" fill="white"/>
<path d="M111.903 7.04692C111.697 6.696 111.401 6.4023 111.043 6.1942C110.686 5.9861 110.279 5.87066 109.861 5.85904C109.024 5.85904 107.844 6.70752 107.844 9.60853C107.844 12.2348 108.882 13.0994 110.003 13.0994C110.778 13.1387 111.543 12.9126 112.162 12.4611L112.723 13.5196C112.271 13.949 111.733 14.2839 111.141 14.5035C110.549 14.7232 109.917 14.8229 109.284 14.7964C107.786 14.7964 105.392 13.657 105.392 9.72166C105.392 5.60045 108.112 4.49338 110.003 4.49338C110.552 4.46311 111.1 4.54621 111.613 4.73713C112.125 4.92804 112.589 5.22238 112.974 5.60045L111.903 7.04692Z" fill="white"/>
<path d="M119.217 14.586L117.978 11.3537C117.543 10.2143 117.334 10.0446 116.84 10.0446H116.606V14.5617H114.221V4.61426H116.606V8.889H116.84C117.401 8.889 117.543 8.37183 117.978 7.38597L118.581 5.99608C118.691 5.57249 118.956 5.20138 119.326 4.95061C119.696 4.69985 120.148 4.58619 120.598 4.63042H121.292V6.27082H121.075C120.472 6.27082 120.238 6.96577 119.878 7.92739C119.518 8.889 119.334 9.08294 118.815 9.29305V9.37385C119.275 9.51123 119.652 9.83446 120.213 10.99L121.886 14.5617L119.217 14.586Z" fill="white"/>
<path d="M128.724 14.586V7.49911L125.376 14.586H122.941V4.61426H125.334V11.386L128.682 4.61426H131.1V14.586H128.724Z" fill="white"/>
<path d="M138.615 14.5862V7.49936L135.268 14.5862H132.832V4.61451H135.226V11.3862L138.573 4.61451H140.992V14.5862H138.615ZM137 4.61451C136.693 4.64253 136.383 4.60853 136.09 4.51466C135.797 4.42079 135.527 4.2691 135.298 4.06924C135.069 3.86938 134.886 3.62571 134.759 3.35371C134.633 3.08171 134.567 2.78732 134.565 2.48926H136.079C136.098 2.71144 136.204 2.91838 136.375 3.06835C136.546 3.21831 136.769 3.30014 137 3.29734C137.117 3.30867 137.234 3.29617 137.346 3.26067C137.457 3.22516 137.56 3.16744 137.646 3.09124C137.733 3.01504 137.803 2.92207 137.85 2.81837C137.897 2.71466 137.921 2.60253 137.92 2.48926H139.435C139.421 2.78368 139.347 3.07253 139.217 3.3391C139.087 3.60566 138.903 3.84467 138.676 4.04229C138.45 4.23991 138.185 4.39223 137.898 4.49045C137.61 4.58867 137.305 4.63083 137 4.61451Z" fill="white"/>
<path d="M37.8169 21.8177L37.75 21.0096H35.3733L35.3064 21.8177H34.8545V20.5652H35.1474C35.4367 20.2344 35.6122 19.8249 35.6495 19.3935C35.7346 18.9345 35.7822 18.4698 35.7918 18.0036V17.543H37.8755V20.5571H38.2521V21.8177H37.8169ZM37.2897 17.9874H36.3022V18.3995C36.28 18.7636 36.2296 19.1255 36.1516 19.4824C36.0869 19.8553 35.9597 20.2156 35.775 20.549H37.3232L37.2897 17.9874Z" fill="white"/>
<path d="M39.4237 19.2567C39.4237 20.3153 40.0095 20.6305 40.5451 20.6305C40.8706 20.6271 41.1857 20.519 41.4405 20.3234L41.6162 20.6709C41.2532 20.9498 40.7996 21.0958 40.3359 21.083C39.5743 21.083 38.8044 20.5254 38.8044 19.2971C38.8044 17.9072 39.7584 17.4951 40.3108 17.4951C41.248 17.4951 41.6748 18.0769 41.6748 19.1113V19.2567H39.4237ZM41.0974 18.7072C41.1078 18.6061 41.0964 18.5039 41.0639 18.4073C41.0314 18.3106 40.9785 18.2215 40.9085 18.1455C40.8385 18.0696 40.753 18.0085 40.6573 17.9661C40.5616 17.9237 40.4579 17.9009 40.3526 17.8992C40.1518 17.8992 39.6162 17.988 39.5158 18.8446H41.1225L41.0974 18.7072Z" fill="white"/>
<path d="M43.7419 21.1312C43.5857 21.1467 43.428 21.1253 43.2823 21.069C43.1365 21.0127 43.0071 20.9232 42.905 20.808V22.6261H42.3193V18.408C42.3172 18.1379 42.3005 17.8682 42.269 17.5999L42.8381 17.5433L42.905 18.0847C43.0188 17.9058 43.1791 17.7587 43.3699 17.6581C43.5608 17.5574 43.7755 17.5067 43.9929 17.511C44.7545 17.511 45.3486 18.0362 45.3486 19.1837C45.3905 20.5494 44.5034 21.1312 43.7419 21.1312ZM43.8758 17.9635C43.1645 17.9635 42.9469 18.61 42.9469 19.1918V19.9999C42.9474 20.1019 42.9702 20.2027 43.0136 20.2957C43.0571 20.3886 43.1204 20.4717 43.1993 20.5396C43.2782 20.6074 43.3711 20.6584 43.4717 20.6894C43.5724 20.7203 43.6787 20.7304 43.7837 20.7191C44.3612 20.7191 44.7796 20.3554 44.7796 19.1837C44.7712 18.2948 44.3528 17.9635 43.8758 17.9635Z" fill="white"/>
<path d="M46.6373 19.2567C46.6373 20.3153 47.2231 20.6305 47.7587 20.6305C48.0842 20.6271 48.3993 20.519 48.6541 20.3234L48.8299 20.6709C48.4668 20.9498 48.0133 21.0958 47.5495 21.083C46.788 21.083 46.0181 20.5254 46.0181 19.2971C46.0181 17.9072 46.9721 17.4951 47.5244 17.4951C48.4617 17.4951 48.8968 18.0769 48.8968 19.1113V19.2567H46.6373ZM48.311 18.7072C48.3202 18.6057 48.3077 18.5033 48.2742 18.4066C48.2407 18.3099 48.1869 18.2209 48.1163 18.1451C48.0457 18.0694 47.9596 18.0084 47.8636 17.9661C47.7675 17.9238 47.6634 17.901 47.5579 17.8992C47.357 17.8992 46.8214 17.988 46.721 18.8446H48.3361L48.311 18.7072Z" fill="white"/>
<path d="M50.6626 21.0103H49.5747V17.5518H50.5706C51.2233 17.5518 52.0769 17.5518 52.0769 18.3598C52.0808 18.5489 52.016 18.7333 51.8937 18.8809C51.7713 19.0286 51.5993 19.1301 51.4074 19.1679V19.2164C51.6123 19.2207 51.8073 19.3028 51.9499 19.445C52.0925 19.5873 52.1712 19.7781 52.1689 19.976C52.1689 20.776 51.3823 21.0103 50.6626 21.0103ZM50.6626 17.9639C50.508 17.9663 50.3539 17.9825 50.2023 18.0124V19.0467H50.7463C51.3572 19.0467 51.4994 18.78 51.4994 18.4164C51.4994 18.0528 50.8049 17.972 50.6291 17.972L50.6626 17.9639ZM50.7128 19.3942H50.2107V20.5336C50.3852 20.5923 50.5706 20.6143 50.7547 20.5982C51.5078 20.5982 51.5915 20.1619 51.5915 19.9437C51.558 19.5235 51.1898 19.3942 50.7128 19.3942Z" fill="white"/>
<path d="M54.2359 21.1315C53.399 21.1315 52.7212 20.5254 52.7212 19.2971C52.7212 17.7375 53.717 17.4951 54.261 17.4951C54.8049 17.4951 55.8259 17.7456 55.8259 19.2971C55.8259 20.5254 55.056 21.1315 54.2359 21.1315ZM54.2359 17.8992C53.9011 17.8992 53.3237 17.9961 53.3237 19.281C53.3237 20.2264 53.7338 20.687 54.2359 20.687C54.738 20.687 55.2317 20.2426 55.2317 19.2971C55.2317 18.0123 54.5874 17.9153 54.261 17.9153L54.2359 17.8992Z" fill="white"/>
<path d="M57.9349 21.1315C57.098 21.1315 56.4202 20.5254 56.4202 19.2971C56.4202 17.7375 57.416 17.4951 57.96 17.4951C58.5039 17.4951 59.5249 17.7456 59.5249 19.2971C59.5249 20.5254 58.755 21.1315 57.9349 21.1315ZM57.9349 17.8992C57.6001 17.8992 57.0227 17.9961 57.0227 19.281C57.0227 20.2264 57.4328 20.687 57.9349 20.687C58.437 20.687 58.8721 20.2264 58.8721 19.281C58.8972 18.0123 58.2863 17.9153 57.96 17.9153L57.9349 17.8992Z" fill="white"/>
<path d="M61.6169 21.1228C60.7801 21.1228 60.1357 20.549 60.1357 19.1268C60.1357 17.9066 60.186 16.6379 61.458 16.1046C61.8764 15.9268 62.6714 15.8299 62.9475 15.6602V16.2662C62.6379 16.4602 61.868 16.5167 61.4412 16.7107C61.1889 16.8357 60.9772 17.0256 60.8295 17.2595C60.6818 17.4933 60.6039 17.762 60.6044 18.0359H60.663C60.7836 17.8613 60.9484 17.7192 61.1416 17.6231C61.3349 17.527 61.5503 17.4799 61.7676 17.4864C62.2948 17.4864 63.2153 17.6804 63.2153 19.24C63.2455 19.4661 63.2276 19.6958 63.1625 19.915C63.0974 20.1341 62.9867 20.3382 62.837 20.5145C62.6873 20.6908 62.5018 20.8357 62.292 20.9403C62.0822 21.045 61.8525 21.107 61.6169 21.1228ZM61.709 17.8905C61.4747 17.8905 60.7634 17.9309 60.7634 19.2238C60.7634 20.2258 61.1567 20.6864 61.6504 20.6864C62.1442 20.6864 62.6212 20.2258 62.6212 19.2804C62.6212 18.0117 62.0354 17.9066 61.709 17.9066V17.8905Z" fill="white"/>
<path d="M65.3827 21.1312C65.2334 21.1401 65.0839 21.1156 64.946 21.0595C64.8081 21.0035 64.6855 20.9174 64.5877 20.808V22.6261H63.9936V18.408C63.9959 18.1378 63.9792 17.8678 63.9434 17.5999L64.5208 17.5433L64.5877 18.0847C64.7015 17.9058 64.8618 17.7587 65.0526 17.6581C65.2435 17.5574 65.4582 17.5067 65.6756 17.511C66.4288 17.511 67.0313 18.0362 67.0313 19.1837C67.0313 20.5494 66.1108 21.1312 65.3827 21.1312ZM65.5166 17.9635C64.7969 17.9635 64.5877 18.61 64.5877 19.1918V19.9999C64.5882 20.1019 64.611 20.2027 64.6545 20.2957C64.698 20.3886 64.7612 20.4717 64.8402 20.5396C64.9191 20.6074 65.0119 20.6584 65.1126 20.6894C65.2133 20.7203 65.3196 20.7304 65.4246 20.7191C65.9936 20.7191 66.4204 20.3554 66.4204 19.1837C66.4121 18.2948 66.002 17.9635 65.5166 17.9635Z" fill="white"/>
<path d="M69.952 21.0102C69.8764 20.8405 69.8284 20.6606 69.8097 20.4769C69.6956 20.6743 69.5256 20.8362 69.3195 20.9436C69.1135 21.0509 68.88 21.0993 68.6465 21.0829C68.5148 21.0838 68.3844 21.0576 68.264 21.0061C68.1435 20.9546 68.0358 20.879 67.948 20.7842C67.8601 20.6895 67.7942 20.5777 67.7544 20.4565C67.7147 20.3352 67.7021 20.2072 67.7176 20.0809C67.7176 19.0466 68.6046 18.9092 69.1486 18.893H69.8097V18.6587C69.8097 18.0445 69.5001 17.9476 69.1988 17.9476C69.0027 17.9615 68.8114 18.0129 68.6361 18.0989C68.4609 18.185 68.3051 18.3038 68.1778 18.4486L67.9017 18.0041C68.2964 17.694 68.7903 17.5255 69.2992 17.5274C70.3955 17.5274 70.3955 18.2546 70.3955 18.691V19.1758C70.3231 19.7888 70.3599 20.4092 70.5043 21.0102H69.952ZM69.7762 19.2162H69.2657C68.8222 19.2162 68.295 19.2971 68.295 19.9354C68.295 20.388 68.5209 20.6142 68.8473 20.6142C69.4666 20.6142 69.7762 19.9597 69.7762 19.5476V19.2162Z" fill="white"/>
<path d="M72.6382 21.1228C71.8014 21.1228 71.157 20.549 71.157 19.1268C71.157 17.9066 71.157 16.6379 72.4708 16.1046C72.8893 15.9268 73.6843 15.8299 73.9604 15.6602L74.0023 16.2662C73.701 16.4602 72.9227 16.5167 72.5043 16.7107C72.2543 16.8385 72.0447 17.0291 71.8974 17.2623C71.7501 17.4955 71.6707 17.7628 71.6675 18.0359H71.7344C71.852 17.866 72.0114 17.7268 72.1983 17.6309C72.3853 17.535 72.5939 17.4854 72.8056 17.4864C73.3244 17.4864 74.2533 17.6804 74.2533 19.24C74.2823 19.4672 74.2629 19.6977 74.1964 19.9174C74.1298 20.1371 74.0175 20.3414 73.8662 20.5177C73.715 20.694 73.5281 20.8386 73.3169 20.9426C73.1057 21.0467 72.8748 21.108 72.6382 21.1228ZM72.7219 17.8905C72.4876 17.8905 71.7846 17.9309 71.7846 19.2238C71.7846 20.2258 72.1779 20.6864 72.6215 20.6864C73.065 20.6864 73.6424 20.242 73.6424 19.2965C73.6424 18.0117 73.0483 17.9066 72.7219 17.9066V17.8905Z" fill="white"/>
<path d="M77.1739 21.0102C77.0983 20.8406 77.0503 20.6607 77.0316 20.4769C76.9176 20.6743 76.7475 20.8362 76.5415 20.9436C76.3354 21.0509 76.1019 21.0993 75.8684 21.083C75.7367 21.0838 75.6063 21.0576 75.4859 21.0061C75.3655 20.9547 75.2577 20.879 75.1699 20.7843C75.0821 20.6895 75.0161 20.5778 74.9764 20.4565C74.9366 20.3353 74.9241 20.2072 74.9395 20.0809C74.9395 19.0466 75.8266 18.9092 76.3789 18.893H77.0316V18.6587C77.0316 18.0446 76.722 17.9476 76.4291 17.9476C76.2326 17.9597 76.0407 18.0103 75.8651 18.0965C75.6896 18.1826 75.5341 18.3024 75.4081 18.4486L75.132 18.0042C75.5228 17.6928 76.0145 17.524 76.5211 17.5274C77.6174 17.5274 77.6174 18.2547 77.6174 18.691V19.1759C77.545 19.7888 77.5818 20.4092 77.7262 21.0102H77.1739ZM76.9898 19.2244H76.4793C76.0358 19.2244 75.5086 19.3052 75.5086 19.9436C75.5086 20.3961 75.7345 20.6223 76.0609 20.6223C76.6801 20.6223 76.9898 19.9678 76.9898 19.5557V19.2244Z" fill="white"/>
<path d="M79.7513 18.0043V21.0103H79.1571V18.0043H78.178V17.5518H80.6885V18.0043H79.7513Z" fill="white"/>
<path d="M82.3874 21.0103H81.3079V17.5518H81.902V18.9255C81.902 18.9255 82.2702 18.877 82.4711 18.877C83.5673 18.877 83.8602 19.3619 83.8602 19.8952C83.8602 20.7033 83.1154 21.0103 82.3874 21.0103ZM82.3874 19.2406C82.22 19.2406 81.902 19.2406 81.902 19.2406V20.5497C81.902 20.5497 82.1865 20.5497 82.4376 20.5497C83.1154 20.5497 83.2326 20.1861 83.2326 19.8305C83.2326 19.3942 82.8979 19.2487 82.3874 19.2487V19.2406ZM84.2787 21.0103V17.5518H84.8728V21.0103H84.2787Z" fill="white"/>
<path d="M86.8813 21.0103H85.7935V17.5518H86.7893C87.442 17.5518 88.2956 17.5518 88.2956 18.3598C88.2992 18.55 88.2332 18.7353 88.1092 18.8832C87.9852 19.031 87.8112 19.1318 87.6178 19.1679V19.2164C87.72 19.2175 87.821 19.2379 87.915 19.2767C88.009 19.3154 88.0941 19.3717 88.1656 19.4422C88.2371 19.5128 88.2935 19.5962 88.3316 19.6878C88.3697 19.7794 88.3888 19.8773 88.3877 19.976C88.3877 20.776 87.601 21.0103 86.8813 21.0103ZM86.8813 17.9639C86.724 17.9668 86.5672 17.983 86.4127 18.0124V19.0467H86.965C87.5759 19.0467 87.7182 18.78 87.7182 18.4164C87.7182 18.0528 87.032 17.972 86.8479 17.972L86.8813 17.9639ZM86.965 19.4023H86.4127V20.5417C86.5903 20.5994 86.7783 20.6214 86.965 20.6063C87.7182 20.6063 87.8019 20.1699 87.8019 19.9518C87.7768 19.5235 87.4002 19.3942 86.9316 19.3942L86.965 19.4023Z" fill="white"/>
<path d="M91.2161 21.0102C91.1405 20.8405 91.0926 20.6606 91.0738 20.4769C90.9598 20.6743 90.7897 20.8362 90.5837 20.9436C90.3776 21.0509 90.1441 21.0993 89.9106 21.0829C89.7789 21.0838 89.6485 21.0576 89.5281 21.0061C89.4077 20.9546 89.3 20.879 89.2121 20.7842C89.1243 20.6895 89.0583 20.5777 89.0186 20.4565C88.9789 20.3352 88.9663 20.2072 88.9817 20.0809C88.9817 19.0466 89.8688 18.9092 90.4211 18.893H91.0738V18.6587C91.0738 18.0445 90.7642 17.9476 90.4713 17.9476C90.2748 17.9596 90.0829 18.0103 89.9074 18.0964C89.7318 18.1826 89.5763 18.3024 89.4504 18.4486L89.1658 18.0041C89.5606 17.694 90.0545 17.5255 90.5634 17.5274C91.668 17.5274 91.668 18.2546 91.668 18.691V19.1758C91.6003 19.8035 91.6456 20.4378 91.8019 21.0506L91.2161 21.0102ZM91.0404 19.2162H90.5299C90.0864 19.2162 89.5592 19.2971 89.5592 19.9354C89.5592 20.388 89.7851 20.6142 90.1115 20.6142C90.7307 20.6142 91.0404 19.9597 91.0404 19.5476V19.2162Z" fill="white"/>
<path d="M95.4004 21.1237C94.5635 21.1237 93.9192 20.558 93.8773 19.4105H93.1493V21.0267H92.5635V17.552H93.1493V19.0307H93.8857C94.0531 17.754 94.915 17.4873 95.4255 17.4873C95.936 17.4873 96.982 17.7459 96.982 19.2974C96.9904 20.5257 96.2372 21.1237 95.4004 21.1237ZM95.4004 17.8913C95.0656 17.8913 94.4715 17.9964 94.4715 19.2812C94.4715 20.2267 94.8983 20.6873 95.4004 20.6873C95.9025 20.6873 96.3293 20.2267 96.3293 19.2812C96.3628 18.0126 95.7519 17.9075 95.4004 17.9075V17.8913Z" fill="white"/>
<path d="M102.162 21.8184L102.095 21.0103H97.752V17.5518H98.3378V20.5659H99.6516V17.5518H100.246V20.5659H101.56V17.5518H102.145V20.5659H102.614V21.8184H102.162Z" fill="white"/>
<path d="M105.543 21.0102V18.3273L103.869 21.0182H103.275V17.5516H103.869V20.2021L105.543 17.5273H106.129V21.0102H105.543Z" fill="white"/>
<path d="M109.317 21.01V18.3272L107.643 21.0181H107.058V17.5515H107.643V20.202L109.317 17.5272H109.911V21.01H109.317ZM108.48 17.1717C108.349 17.184 108.217 17.1699 108.092 17.1301C107.967 17.0902 107.852 17.0257 107.754 16.9405C107.657 16.8553 107.578 16.7514 107.525 16.6353C107.471 16.5193 107.443 16.3937 107.443 16.2666H107.953C107.964 16.4016 108.028 16.5274 108.133 16.6178C108.237 16.7081 108.374 16.756 108.514 16.7515C108.584 16.7558 108.654 16.7467 108.72 16.7246C108.786 16.7025 108.847 16.6678 108.899 16.6227C108.952 16.5775 108.994 16.5228 109.024 16.4616C109.054 16.4005 109.071 16.3342 109.074 16.2666H109.543C109.541 16.3929 109.512 16.5175 109.459 16.6328C109.405 16.748 109.328 16.8516 109.232 16.937C109.136 17.0225 109.022 17.0881 108.899 17.1298C108.775 17.1716 108.644 17.1885 108.514 17.1797L108.48 17.1717Z" fill="white"/>
<path d="M114.589 21.0102L114.079 19.992C113.844 19.5394 113.66 19.4425 113.351 19.4425H113.108V21.0102H112.522V17.5516H113.108V19.0627H113.275C113.644 19.0627 113.736 18.9334 113.936 18.497L114.104 18.1253C114.177 17.9364 114.31 17.7749 114.485 17.6644C114.659 17.5539 114.866 17.5002 115.075 17.5112V18.0203C114.865 18.0203 114.623 18.0203 114.397 18.594C114.363 18.7187 114.301 18.8347 114.216 18.9338C114.131 19.033 114.024 19.1128 113.903 19.1677V19.2081C114.053 19.2614 114.19 19.3442 114.305 19.4514C114.421 19.5585 114.512 19.6875 114.572 19.8304L115.208 21.0182L114.589 21.0102Z" fill="white"/>
<path d="M117.066 21.1315C116.229 21.1315 115.552 20.5254 115.552 19.2971C115.552 17.7375 116.556 17.4951 117.1 17.4951C117.644 17.4951 118.656 17.7456 118.656 19.2971C118.656 20.5254 117.886 21.1315 117.066 21.1315ZM117.066 17.8992C116.731 17.8992 116.146 17.9961 116.146 19.281C116.146 20.2264 116.564 20.687 117.066 20.687C117.568 20.687 117.995 20.2264 117.995 19.281C117.995 18.0123 117.418 17.9153 117.1 17.9153L117.066 17.8992Z" fill="white"/>
<path d="M122.489 21.0096V18.4561L121.317 20.6379H121.15L119.937 18.4561V21.0096H119.418L119.493 17.543H120.079L121.334 19.7975L122.506 17.543H123.016L123.091 21.0096H122.489Z" fill="white"/>
<path d="M125.318 21.1228C124.481 21.1228 123.836 20.549 123.836 19.1268C123.836 17.9066 123.878 16.6379 125.15 16.1046C125.569 15.9268 126.364 15.8299 126.64 15.6602V16.2662C126.338 16.4602 125.56 16.5167 125.142 16.7107C124.892 16.8385 124.682 17.0291 124.535 17.2623C124.388 17.4955 124.308 17.7628 124.305 18.0359H124.372C124.493 17.8613 124.657 17.7192 124.851 17.6231C125.044 17.527 125.259 17.4799 125.477 17.4864C125.995 17.4864 126.924 17.6804 126.924 19.24C126.953 19.4665 126.934 19.6964 126.868 19.9156C126.802 20.1348 126.69 20.3387 126.54 20.5149C126.39 20.6911 126.204 20.8359 125.994 20.9404C125.783 21.0449 125.553 21.1069 125.318 21.1228ZM125.401 17.8905C125.167 17.8905 124.464 17.9309 124.464 19.2238C124.464 20.2258 124.857 20.6864 125.343 20.6864C125.828 20.6864 126.313 20.2258 126.313 19.2804C126.313 18.0117 125.728 17.9066 125.401 17.9066V17.8905Z" fill="white"/>
<path d="M129.979 21.0102V18.3273L128.305 21.0182H127.711V17.5516H128.305V20.2021L129.979 17.5273H130.565V21.0102H129.979Z" fill="white"/>
<path d="M133.594 21.0103V19.3942H132.062V21.0103H131.477V17.5518H132.062V18.9982H133.594V17.5518H134.188V21.0103H133.594Z" fill="white"/>
<path d="M137.243 21.0102C137.167 20.8405 137.119 20.6606 137.1 20.4769C136.986 20.6743 136.816 20.8362 136.61 20.9436C136.404 21.0509 136.171 21.0993 135.937 21.0829C135.805 21.0838 135.675 21.0576 135.555 21.0061C135.434 20.9546 135.326 20.879 135.239 20.7842C135.151 20.6895 135.085 20.5777 135.045 20.4565C135.005 20.3352 134.993 20.2072 135.008 20.0809C135.008 19.0466 135.895 18.9092 136.439 18.893H137.1V18.6587C137.1 18.0445 136.791 17.9476 136.489 17.9476C136.293 17.9615 136.102 18.0129 135.927 18.0989C135.752 18.185 135.596 18.3038 135.468 18.4486L135.192 18.0041C135.587 17.694 136.081 17.5255 136.59 17.5274C137.686 17.5274 137.686 18.2546 137.686 18.691V19.1758C137.62 19.804 137.668 20.4385 137.828 21.0506L137.243 21.0102ZM137.067 19.2162H136.556C136.113 19.2162 135.586 19.2971 135.586 19.9354C135.586 20.388 135.812 20.6142 136.138 20.6142C136.757 20.6142 137.067 19.9597 137.067 19.5476V19.2162Z" fill="white"/>
<path d="M139.845 18.0043V21.0103H139.251V18.0043H138.272V17.5518H140.782V18.0043H139.845Z" fill="white"/>
</g>
<defs>
<clipPath id="clip0_1723_4076">
<rect width="141" height="24" fill="white"/>
</clipPath>
</defs>
</svg>
